# xmcd
#
# Track frame offsets:
#	150
#	17372
#	32402
#	42484
#	59955
#	72152
#	85907
#	99927
#	107277
#	118619
#	135011
#	151559
#	164089
#	180558
#
# Disc length: 2574 seconds
#
# Revision: 0
# Processed by: cddbd v1.4PL0 Copyright (c) Steve Scherf et al.
# Submitted via: EasyCDDAExtractor 4.6.0.1
#
DISCID=a30a0c0e
DTITLE=Smokestack Lightnin' - Soulbeat
DYEAR=1900
DGENRE=Rockabilly
TTITLE0=Soulbeat
TTITLE1=Hell's Angels
TTITLE2=Run For Your Live
TTITLE3=Walk Away
TTITLE4=Luisianna
TTITLE5=Travellin' Bone
TTITLE6=Down To Your Heart
TTITLE7=Real Gone Daddy
TTITLE8=Unknown Stuntman
TTITLE9=Ring Of Fire
TTITLE10=Gentle Of My Mind
TTITLE11=Rockabilly Blues
TTITLE12=Don't Think Twice
TTITLE13=Call Me Shorty
EXTD=
EXTT0=
EXTT1=
EXTT2=
EXTT3=
EXTT4=
EXTT5=
EXTT6=
EXTT7=
EXTT8=
EXTT9=
EXTT10=
EXTT11=
EXTT12=
EXTT13=
PLAYORDER=
